<svg xmlns="http://www.w3.org/2000/svg" viewBox="0 0 1575 1575" preserveAspectRatio="xMidYMid meet">
  <rect width="1575" height="1575" fill="#FF0000"/>
  <g transform="translate(0.000000,1575.000000) scale(0.100000,-0.100000)"
fill="#FFFFFF" stroke="none">
<path d="M13960 14898 c-589 -98 -872 -779 -525 -1263 97 -135 220 -226 400
-295 93 -36 318 -48 425 -22 251 61 440 211 552 438 38 79 46 104 68 214 31
158 -13 412 -91 528 -16 24 -29 45 -29 48 0 15 -93 124 -137 160 -195 164
-427 231 -663 192z m229 -139 c36 -6 75 -15 86 -19 11 -4 36 -14 55 -21 19 -7
47 -21 62 -31 14 -10 29 -18 33 -18 15 0 112 -85 160 -141 93 -109 138 -225
152 -393 5 -69 -13 -212 -28 -222 -5 -3 -9 -13 -9 -22 -1 -54 -114 -229 -188
-290 -140 -115 -253 -156 -427 -156 -132 0 -190 15 -310 78 -110 58 -271 245
-297 345 -3 14 -14 53 -23 86 -18 64 -17 240 2 321 30 126 143 291 253 367 25
17 47 33 50 36 8 10 101 48 145 60 96 26 113 29 164 30 29 1 83 -4 120 -10z"/>
<path d="M13760 14100 l0 -470 80 0 80 0 2 193 3 192 57 3 c68 4 90 -6 112
-50 16 -31 194 -299 216 -325 13 -16 150 -18 150 -2 0 5 -18 37 -40 69 -22 32
-40 62 -40 66 0 3 -22 36 -48 73 -51 70 -112 164 -112 173 0 3 26 15 58 26
130 48 177 123 170 267 -8 144 -50 199 -189 243 -22 8 -119 12 -267 12 l-232
0 0 -470z m457 319 c77 -29 106 -109 68 -186 -30 -60 -54 -67 -215 -68 l-145
0 -3 133 -3 132 135 0 c74 0 147 -5 163 -11z"/>
<path d="M970 3710 l0 -2740 525 0 525 0 0 1150 0 1150 843 2 842 3 0 465 0
465 -840 5 -840 5 -3 647 -2 648 1092 2 1093 3 0 465 0 465 -1617 3 -1618 2 0
-2740z"/>
<path d="M4952 6423 c-17 -47 -23 -67 -32 -108 -5 -22 -13 -56 -19 -75 -16
-57 -51 -192 -60 -230 -5 -19 -18 -71 -31 -115 -12 -44 -25 -93 -30 -110 -16
-57 -72 -270 -80 -305 -5 -19 -18 -69 -30 -110 -12 -41 -30 -109 -40 -150 -11
-41 -24 -93 -30 -115 -12 -42 -22 -82 -39 -150 -9 -38 -19 -73 -40 -147 -21
-71 -33 -115 -41 -153 -11 -46 -21 -81 -50 -185 -21 -74 -29 -105 -49 -185
-12 -49 -38 -148 -62 -235 -17 -61 -38 -141 -90 -335 -11 -44 -34 -129 -50
-190 -17 -60 -34 -126 -39 -145 -4 -19 -16 -62 -25 -95 -15 -55 -24 -87 -46
-170 -4 -16 -13 -50 -20 -75 -6 -25 -16 -60 -20 -77 -5 -18 -13 -48 -18 -65
-4 -18 -13 -52 -20 -75 -6 -24 -16 -62 -22 -85 -23 -85 -28 -104 -39 -148 -6
-25 -15 -58 -19 -75 -17 -61 -73 -271 -81 -305 -5 -19 -18 -66 -29 -105 -42
-152 -53 -192 -62 -230 -17 -68 -27 -107 -49 -190 -12 -44 -31 -114 -42 -155
-11 -41 -24 -91 -29 -110 -6 -19 -14 -51 -19 -70 -5 -19 -13 -51 -19 -70 -19
-68 -52 -196 -61 -235 -5 -22 -12 -48 -15 -57 -7 -17 22 -18 529 -18 421 0
537 3 540 13 6 22 26 96 36 137 6 22 14 57 20 78 5 20 19 78 31 127 11 50 25
104 29 120 12 43 40 151 70 275 5 19 14 53 19 75 6 22 15 60 20 85 6 25 20 81
32 125 25 96 35 135 48 195 25 107 30 123 43 131 7 5 351 9 764 9 l751 0 12
-47 c7 -27 16 -61 20 -78 5 -16 14 -50 19 -75 6 -25 28 -110 48 -190 20 -80
40 -163 45 -185 4 -22 13 -56 19 -75 6 -19 15 -53 20 -75 4 -22 16 -69 25
-105 61 -238 88 -350 96 -385 4 -22 10 -47 13 -55 3 -8 10 -34 16 -57 l11 -43
529 0 530 0 0 25 c0 13 -7 50 -16 82 -8 32 -24 90 -34 128 -21 77 -42 154 -71
260 -11 39 -24 86 -29 105 -9 35 -33 126 -51 190 -6 19 -14 51 -19 70 -5 19
-14 53 -20 75 -6 22 -15 56 -20 75 -5 19 -13 51 -19 70 -20 72 -33 116 -41
150 -23 95 -42 167 -50 185 -5 11 -11 31 -13 45 -3 14 -14 57 -25 95 -10 39
-27 102 -37 140 -10 39 -21 79 -26 90 -4 11 -10 31 -13 45 -2 14 -9 41 -14 60
-37 129 -75 272 -108 400 -9 36 -20 73 -25 82 -5 10 -9 27 -9 37 0 11 -4 30
-9 43 -8 21 -21 64 -42 143 -4 17 -13 50 -20 75 -6 25 -15 59 -20 75 -4 17
-13 50 -20 75 -16 63 -26 98 -39 150 -7 25 -16 56 -20 70 -8 25 -25 87 -41
145 -4 17 -15 57 -24 90 -9 33 -21 76 -25 95 -5 19 -13 51 -19 70 -5 19 -19
69 -30 110 -11 41 -25 91 -31 110 -6 19 -15 53 -20 75 -5 22 -13 56 -18 75
-40 141 -54 193 -67 250 -9 36 -20 73 -25 82 -6 10 -10 28 -10 40 0 13 -8 43
-16 68 -16 45 -28 84 -44 150 -11 45 -48 185 -62 230 -5 19 -12 50 -15 68 -3
18 -9 35 -14 38 -5 3 -9 14 -9 25 0 11 -8 48 -19 82 -10 34 -26 91 -35 127
-10 36 -22 81 -27 100 -6 19 -13 46 -16 60 -2 14 -13 54 -23 90 -34 119 -49
175 -60 218 l-11 42 -703 0 -704 0 -10 -27z m744 -970 c3 -16 8 -35 11 -43 2
-8 8 -35 13 -60 4 -25 15 -72 23 -105 27 -105 87 -351 96 -396 6 -24 15 -62
21 -84 6 -22 15 -60 20 -85 5 -25 14 -63 20 -85 6 -22 20 -80 31 -130 10 -49
24 -108 29 -130 6 -22 17 -67 25 -100 38 -168 96 -404 105 -431 5 -17 10 -38
10 -48 0 -10 9 -50 20 -89 10 -40 29 -112 40 -162 12 -49 25 -106 30 -125 24
-91 37 -156 33 -162 -2 -5 -249 -8 -549 -8 l-545 0 6 48 c4 26 15 76 24 112
30 112 41 159 41 185 0 13 5 27 10 30 6 3 10 16 10 27 0 12 4 35 9 52 10 31
36 138 51 211 11 48 23 99 44 180 8 33 22 92 31 130 47 203 81 344 96 391 5
17 9 40 9 52 0 11 4 31 9 44 5 13 19 66 31 118 11 52 25 111 30 130 5 19 18
73 29 120 11 47 27 114 36 150 9 36 21 85 26 110 5 25 13 63 20 85 6 22 13 52
16 68 3 15 11 27 19 27 7 0 16 -12 20 -27z"/>
<path d="M8010 3710 l0 -2740 1608 2 1607 3 0 460 0 460 -1075 5 -1075 5 -5
2270 -5 2270 -527 3 -528 2 0 -2740z"/>
<path d="M11240 4493 c1 -2252 -3 -2146 91 -2473 11 -38 10 -36 64 -165 151
-366 485 -691 850 -825 33 -12 69 -25 80 -30 23 -9 142 -44 200 -59 45 -11
122 -25 240 -43 103 -16 535 -15 635 0 177 29 400 84 485 122 114 50 207 96
258 126 397 239 655 634 738 1129 28 170 29 302 27 2210 l-3 1960 -522 3 -523
2 0 -1788 c0 -1704 -4 -1972 -29 -2107 -6 -27 -15 -77 -21 -110 -40 -207 -143
-403 -256 -485 -79 -57 -97 -67 -195 -101 -92 -32 -97 -33 -274 -33 -200 0
-276 14 -397 75 -180 91 -315 323 -358 614 -6 44 -17 107 -23 140 -8 42 -13
620 -17 1925 l-5 1865 -522 3 -523 2 0 -1957z"/>
</g>
</svg>
